HIERARCHY
ROOT Hips
{
  OFFSET 54.7225 85.667 11.6347
  CHANNELS 6 Xposition Yposition Zposition Zrotation Xrotation Yrotation
  JOINT spine
  {
    OFFSET 0 6.3926 0.367606
    CHANNELS 3 Zrotation Xrotation Yrotation
    JOINT spine1
    {
      OFFSET 0 9.17611 0
      CHANNELS 3 Zrotation Xrotation Yrotation
      JOINT spine2
      {
        OFFSET 0 8.79238 0
        CHANNELS 3 Zrotation Xrotation Yrotation
        JOINT Neck
        {
          OFFSET 0 22.5737 1.07624
          CHANNELS 3 Zrotation Xrotation Yrotation
          JOINT Head
          {
            OFFSET 0 6.82011 0
            CHANNELS 3 Zrotation Xrotation Yrotation
            End Site
            {
              OFFSET 0 16.5085 -5.44427
            }
          }
        }
        JOINT RightShoulder
        {
          OFFSET -3.70221 9.49509 -0.515508
          CHANNELS 3 Zrotation Xrotation Yrotation
          JOINT RightArm
          {
            OFFSET 0 12.4537 0
            CHANNELS 3 Zrotation Xrotation Yrotation
            JOINT RightArmRoll
            {
              OFFSET 0 6.28686 0
              CHANNELS 3 Zrotation Xrotation Yrotation
              JOINT RightForeArm
              {
                OFFSET 0 18.3114 0
                CHANNELS 3 Zrotation Xrotation Yrotation
                JOINT RightForeArmRoll
                {
                  OFFSET 0 7.05482 0
                  CHANNELS 3 Zrotation Xrotation Yrotation
                  JOINT RightHand
                  {
                    OFFSET 0 14.1575 0
                    CHANNELS 3 Zrotation Xrotation Yrotation
                    End Site
                    {
                      OFFSET 0 0 0
                    }
                  }
                }
              }
            }
          }
        }
        JOINT LeftShoulder
        {
          OFFSET 3.70221 9.49509 -0.515508
          CHANNELS 3 Zrotation Xrotation Yrotation
          JOINT LeftArm
          {
            OFFSET 0 12.4537 0
            CHANNELS 3 Zrotation Xrotation Yrotation
            JOINT LeftArmRoll
            {
              OFFSET 0 6.28686 0
              CHANNELS 3 Zrotation Xrotation Yrotation
              JOINT LeftForeArm
              {
                OFFSET 0 18.3114 0
                CHANNELS 3 Zrotation Xrotation Yrotation
                JOINT LeftForeArmRoll
                {
                  OFFSET 0 7.05482 0
                  CHANNELS 3 Zrotation Xrotation Yrotation
                  JOINT LeftHand
                  {
                    OFFSET 0 14.1575 0
                    CHANNELS 3 Zrotation Xrotation Yrotation
                    End Site
                    {
                      OFFSET 0 0 0
                    }
                  }
                }
              }
            }
          }
        }
      }
    }
  }
  JOINT RightUpLeg
  {
    OFFSET -5.66615 -1.03903 -0.87161
    CHANNELS 3 Zrotation Xrotation Yrotation
    JOINT RightUpLegRoll
    {
      OFFSET 0 16.6005 0
      CHANNELS 3 Zrotation Xrotation Yrotation
      JOINT RightLeg
      {
        OFFSET 0 -20.5572 0
        CHANNELS 3 Zrotation Xrotation Yrotation
        JOINT RightLegRoll
        {
          OFFSET 0 20.6244 0
          CHANNELS 3 Zrotation Xrotation Yrotation
          JOINT RightFoot
          {
            OFFSET 0 17.1664 0
            CHANNELS 3 Zrotation Xrotation Yrotation
            JOINT RightToeBase
            {
              OFFSET 0 14.3502 0
              CHANNELS 3 Zrotation Xrotation Yrotation
              End Site
              {
                OFFSET 0.00608252 6.94971 -0.80106
              }
            }
          }
        }
      }
    }
  }
  JOINT LeftUpLeg
  {
    OFFSET 5.66615 -1.03903 -0.87161
    CHANNELS 3 Zrotation Xrotation Yrotation
    JOINT LeftUpLegRoll
    {
      OFFSET 0 16.6006 0
      CHANNELS 3 Zrotation Xrotation Yrotation
      JOINT LeftLeg
      {
        OFFSET 0 20.5571 0
        CHANNELS 3 Zrotation Xrotation Yrotation
        JOINT LeftLegRoll
        {
          OFFSET 0 20.8151 0
          CHANNELS 3 Zrotation Xrotation Yrotation
          JOINT LeftFoot
          {
            OFFSET 0 16.9757 0
            CHANNELS 3 Zrotation Xrotation Yrotation
            JOINT LeftToeBase
            {
              OFFSET 0 14.3502 0
              CHANNELS 3 Zrotation Xrotation Yrotation
              End Site
              {
                OFFSET -0.0272592 6.9497 -0.801061
              }
            }
          }
        }
      }
    }
  }
}
MOTION
Frames: 13
Frame Time: 0.00208333
53.9281 85.6652 11.3388 -2.70707 -6.27853 -1.65556 0.0936795 -0.9267 -0.0848467 0.18186 2.14889 -0.18005 0.184162 3.79396 -0.183195 0.609995 9.3483 -1.00493 -3.48365 8.00248 -0.907849 53.1879 5.24756 4.35164 122.39 26.5843 -64.6965 7.43564e-007 -1.12047e-007 -2.83057e-006 -151.207 67.6847 130.105 9.49884e-007 -3.55004e-007 -3 8.02889 -4.95145 0.697709 -48.2335 1.92592 -2.88269 -121.062 29.3479 28.0325 -6.48933e-008 5.62099e-006 3.84571e-006 171.286 75.4143 -162.124 2.99717e-006 5.31099e-006 3 -8.02894 -4.95146 -0.697697 177.727 -4.82272 -0.133028 180 7.01521e-015 178.817 177.524 5.22983 179.732 -7.93365e-007 3.1421e-006 0.0372525 -18.5647 67.7634 19.355 8.13649 25.2327 -3.48773 -171.297 -3.32678 -2.08548 4.54188e-006 -4.6773e-006 -1.03548 -1.28529 -9.24453 0.586648 3.05901e-007 -6.6868e-007 -0.0116299 17.2376 69.2807 -20.5608 -8.13656 25.2337 3.48637 
53.926 85.664 11.338 -2.70784 -6.28551 -1.6595 0.0935085 -0.917148 -0.0861762 0.180665 2.16809 -0.182553 0.182995 3.81316 -0.185657 0.594852 9.19382 -0.991129 -3.46219 8.07039 -0.896597 53.2026 5.27644 4.36839 122.181 26.3143 -64.5812 7.43564e-007 -1.12047e-007 -2.83057e-006 -151.497 67.2836 130.085 9.49884e-007 -3.55004e-007 -3 8.02889 -4.95145 0.697709 -48.2312 1.83696 -2.81677 -120.82 29.0095 28.8516 -6.48933e-008 5.62099e-006 3.84571e-006 171.159 75.2595 -161.63 2.99717e-006 5.31099e-006 3 -8.02894 -4.95146 -0.697697 177.727 -4.82891 -0.131931 180 7.01521e-015 178.817 177.524 5.23041 179.732 -7.93365e-007 3.1421e-006 0.0372569 -18.5643 67.7629 19.3547 8.13649 25.2327 -3.48773 -171.296 -3.33475 -2.08753 4.54188e-006 -4.6773e-006 -1.03557 -1.28629 -9.24333 0.586316 3.05901e-007 -6.6868e-007 -0.0115956 17.2385 69.2799 -20.5609 -8.13656 25.2337 3.48637 
53.9254 85.6644 11.3418 -2.70861 -6.29192 -1.66311 0.0934899 -0.908126 -0.0873512 0.17989 2.18622 -0.184781 0.182247 3.83129 -0.187853 0.577862 9.05131 -0.977144 -3.44005 8.12431 -0.885992 53.2137 5.29247 4.37705 121.989 26.057 -64.4835 7.43564e-007 -1.12047e-007 -2.83057e-006 -151.76 66.9132 130.057 9.49884e-007 -3.55004e-007 -3 8.02889 -4.95145 0.697709 -48.233 1.7453 -2.74824 -120.578 28.6944 29.6643 -6.48933e-008 5.62099e-006 3.84571e-006 171.027 75.1133 -161.137 2.99717e-006 5.31099e-006 3 -8.02894 -4.95146 -0.697697 177.728 -4.83438 -0.132318 180 7.01521e-015 178.817 177.526 5.23175 179.731 -7.93365e-007 3.1421e-006 0.0372613 -18.5635 67.762 19.3541 8.13649 25.2327 -3.48773 -171.294 -3.3414 -2.08948 4.54188e-006 -4.6773e-006 -1.03561 -1.28721 -9.24353 0.586061 3.05901e-007 -6.6868e-007 -0.0115615 17.2393 69.2798 -20.5616 -8.13656 25.2337 3.48637 
53.9218 85.6758 11.3407 -2.70938 -6.29757 -1.66632 0.0936391 -0.899807 -0.0883328 0.179599 2.20293 -0.186665 0.181979 3.848 -0.189717 0.559016 8.92369 -0.96305 -3.41749 8.16171 -0.876163 53.2204 5.29405 4.37667 121.819 25.8174 -64.4092 7.43564e-007 -1.12047e-007 -2.83057e-006 -151.987 66.5833 130.02 9.49884e-007 -3.55004e-007 -3 8.02889 -4.95145 0.697709 -48.2391 1.65211 -2.67795 -120.342 28.409 30.4671 -6.48933e-008 5.62099e-006 3.84571e-006 170.885 74.9783 -160.646 2.99717e-006 5.31099e-006 3 -8.02894 -4.95146 -0.697697 177.73 -4.83893 -0.134432 180 7.01521e-015 178.817 177.53 5.23398 179.731 -7.93365e-007 3.1421e-006 0.0372657 -18.5625 67.7608 19.353 8.13649 25.2327 -3.48773 -171.293 -3.34642 -2.09131 4.54188e-006 -4.6773e-006 -1.0356 -1.28803 -9.2454 0.585897 3.05901e-007 -6.6868e-007 -0.0115278 17.2402 69.2804 -20.5628 -8.13656 25.2337 3.48637 
53.9256 85.6741 11.3418 -2.71017 -6.30231 -1.66903 0.0939716 -0.892366 -0.089082 0.179854 2.21787 -0.188135 0.182252 3.86294 -0.191181 0.538302 8.81393 -0.94892 -3.39473 8.18009 -0.86724 53.2219 5.27957 4.36632 121.674 25.6005 -64.3637 7.43564e-007 -1.12047e-007 -2.83057e-006 -152.168 66.3032 129.972 9.49884e-007 -3.55004e-007 -3 8.02889 -4.95145 0.697709 -48.2499 1.55857 -2.6067 -120.116 28.1593 31.2569 -6.48933e-008 5.62099e-006 3.84571e-006 170.732 74.8574 -160.156 2.99717e-006 5.31099e-006 3 -8.02894 -4.95146 -0.697697 177.733 -4.84236 -0.138515 180 7.01521e-015 178.817 177.536 5.2372 179.731 -7.93365e-007 3.1421e-006 0.0372702 -18.5611 67.7592 19.3514 8.13649 25.2327 -3.48773 -171.291 -3.34949 -2.09302 4.54188e-006 -4.6773e-006 -1.03552 -1.28873 -9.24921 0.585839 3.05901e-007 -6.6868e-007 -0.0114943 17.2411 69.282 -20.5647 -8.13656 25.2337 3.48637 
53.9232 85.6679 11.3427 -2.71099 -6.30596 -1.67117 0.0945029 -0.885976 -0.0895598 0.180716 2.2307 -0.18912 0.183128 3.87577 -0.192176 0.515705 8.72498 -0.934822 -3.37204 8.17692 -0.859355 53.2173 5.24742 4.34504 121.559 25.4113 -64.3523 7.43564e-007 -1.12047e-007 -2.83057e-006 -152.295 66.0827 129.91 9.49884e-007 -3.55004e-007 -3 8.02889 -4.95145 0.697709 -48.2658 1.46586 -2.53532 -119.908 27.9513 32.0304 -6.48933e-008 5.62099e-006 3.84571e-006 170.564 74.7536 -159.666 2.99717e-006 5.31099e-006 3 -8.02894 -4.95146 -0.697697 177.738 -4.84448 -0.144808 180 7.01521e-015 178.816 177.546 5.24157 179.73 -7.93365e-007 3.1421e-006 0.0372746 -18.5594 67.7571 19.3494 8.13649 25.2327 -3.48773 -171.289 -3.35031 -2.09457 4.54188e-006 -4.6773e-006 -1.03536 -1.2893 -9.25522 0.585903 3.05901e-007 -6.6868e-007 -0.0114611 17.2419 69.2847 -20.5673 -8.13656 25.2337 3.48637 
53.9211 85.6697 11.3362 -2.71195 -6.30918 -1.67292 0.0952955 -0.880155 -0.0898338 0.182303 2.24237 -0.189758 0.184726 3.88744 -0.192841 0.489602 8.65192 -0.920172 -3.34771 8.15343 -0.852337 53.2067 5.19489 4.31101 121.468 25.2401 -64.3643 7.43564e-007 -1.12047e-007 -2.83057e-006 -152.382 65.9082 129.84 9.49884e-007 -3.55004e-007 -3 8.02889 -4.95145 0.697709 -48.2889 1.36628 -2.45778 -119.712 27.7807 32.8088 -6.48933e-008 5.62099e-006 3.84571e-006 170.375 74.6636 -159.164 2.99717e-006 5.31099e-006 3 -8.02894 -4.95146 -0.697697 177.746 -4.84575 -0.154499 180 7.01521e-015 178.816 177.56 5.24771 179.729 -7.93365e-007 3.1421e-006 0.0372791 -18.557 67.7542 19.3464 8.13649 25.2327 -3.48773 -171.287 -3.34901 -2.09618 4.54188e-006 -4.6773e-006 -1.0351 -1.28976 -9.26447 0.586115 3.05901e-007 -6.6868e-007 -0.0114282 17.2429 69.289 -20.5711 -8.13656 25.2337 3.48637 
53.923 85.6632 11.3379 -2.71311 -6.31262 -1.67455 0.0963771 -0.874347 -0.089999 0.184628 2.25401 -0.19023 0.18706 3.89908 -0.193354 0.458812 8.58775 -0.904458 -3.3202 8.11345 -0.845913 53.1912 5.12183 4.26398 121.394 25.0741 -64.385 7.43564e-007 -1.12047e-007 -2.83057e-006 -152.449 65.7587 129.768 9.49884e-007 -3.55004e-007 -3 8.02889 -4.95145 0.697709 -48.3201 1.25283 -2.36867 -119.518 27.6362 33.6119 -6.48933e-008 5.62099e-006 3.84571e-006 170.164 74.5816 -158.639 2.99717e-006 5.31099e-006 3 -8.02894 -4.95146 -0.697697 177.756 -4.84673 -0.168176 180 7.01521e-015 178.815 177.579 5.25598 179.727 -7.93365e-007 3.1421e-006 0.0372836 -18.5539 67.7504 19.3425 8.13649 25.2327 -3.48773 -171.285 -3.34608 -2.09802 4.54188e-006 -4.6773e-006 -1.03475 -1.29016 -9.27744 0.586477 3.05901e-007 -6.6868e-007 -0.0113955 17.244 69.295 -20.5763 -8.13656 25.2337 3.48637 
53.9315 85.6606 11.3198 -2.71442 -6.31614 -1.67603 0.0977114 -0.868618 -0.0900566 0.187596 2.26548 -0.190533 0.190038 3.91055 -0.193711 0.423975 8.53227 -0.887856 -3.29 8.05833 -0.840058 53.171 5.03051 4.20539 121.334 24.9138 -64.414 7.43564e-007 -1.12047e-007 -2.83057e-006 -152.497 65.6325 129.694 9.49884e-007 -3.55004e-007 -3 8.02889 -4.95145 0.697709 -48.3582 1.12771 -2.26984 -119.328 27.5134 34.4344 -6.48933e-008 5.62099e-006 3.84571e-006 169.935 74.5067 -158.093 2.99717e-006 5.31099e-006 3 -8.02894 -4.95146 -0.697697 177.77 -4.84739 -0.185187 180 7.01521e-015 178.815 177.604 5.26602 179.725 -7.93365e-007 3.1421e-006 0.037288 -18.5501 67.7458 19.3376 8.13649 25.2327 -3.48773 -171.282 -3.34168 -2.10003 4.54188e-006 -4.6773e-006 -1.03432 -1.29051 -9.29351 0.586968 3.05901e-007 -6.6868e-007 -0.011363 17.2453 69.3025 -20.5827 -8.13656 25.2337 3.48637 
53.9328 85.6608 11.3211 -2.71583 -6.31961 -1.67735 0.0992617 -0.863034 -0.0900082 0.191117 2.27666 -0.190662 0.193567 3.92172 -0.193905 0.385733 8.48528 -0.870542 -3.25759 7.98941 -0.834745 53.1468 4.92316 4.13668 121.288 24.7595 -64.4507 7.43564e-007 -1.12047e-007 -2.83057e-006 -152.529 65.5277 129.618 9.49884e-007 -3.55004e-007 -3 8.02889 -4.95145 0.697709 -48.402 0.993141 -2.16308 -119.143 27.4082 35.2715 -6.48933e-008 5.62099e-006 3.84571e-006 169.689 74.4378 -157.531 2.99717e-006 5.31099e-006 3 -8.02894 -4.95146 -0.697697 177.785 -4.84769 -0.204881 180 7.01521e-015 178.814 177.632 5.27748 179.723 -7.93365e-007 3.1421e-006 0.0372925 -18.5458 67.7406 19.3321 8.13649 25.2327 -3.48773 -171.279 -3.33599 -2.10212 4.54188e-006 -4.6773e-006 -1.03381 -1.29081 -9.31207 0.587566 3.05901e-007 -6.6868e-007 -0.0113309 17.2468 69.3112 -20.5901 -8.13656 25.2337 3.48637 
53.9286 85.6475 11.3494 -2.71729 -6.3229 -1.67849 0.100992 -0.85766 -0.0898553 0.195096 2.28741 -0.190614 0.197553 3.93247 -0.193932 0.344723 8.44657 -0.852694 -3.22346 7.90804 -0.829948 53.1189 4.80206 4.05929 121.253 24.6115 -64.4946 7.43564e-007 -1.12047e-007 -2.83057e-006 -152.544 65.4428 129.54 9.49884e-007 -3.55004e-007 -3 8.02889 -4.95145 0.697709 -48.4502 0.851327 -2.05022 -118.964 27.3168 36.1178 -6.48933e-008 5.62099e-006 3.84571e-006 169.43 74.374 -156.957 2.99717e-006 5.31099e-006 3 -8.02894 -4.95146 -0.697697 177.801 -4.84757 -0.226605 180 7.0152e-015 178.813 177.663 5.28999 179.721 -7.93365e-007 3.1421e-006 0.037297 -18.5411 67.735 19.3261 8.13649 25.2327 -3.48773 -171.276 -3.32918 -2.10424 4.54188e-006 -4.6773e-006 -1.03326 -1.29105 -9.33249 0.588249 3.05901e-007 -6.6868e-007 -0.0112989 17.2483 69.3208 -20.5982 -8.13656 25.2337 3.48637 
53.9313 85.6474 11.3403 -2.71876 -6.32588 -1.67944 0.102865 -0.852562 -0.0895994 0.199442 2.2976 -0.190386 0.201904 3.94266 -0.193785 0.301583 8.41596 -0.834488 -3.1881 7.81559 -0.825642 53.0878 4.66946 3.97466 121.228 24.4702 -64.545 7.43564e-007 -1.12047e-007 -2.83057e-006 -152.544 65.3759 129.461 9.49884e-007 -3.55004e-007 -3 8.02889 -4.95145 0.697709 -48.5019 0.704485 -1.93307 -118.791 27.2355 36.9683 -6.48933e-008 5.62099e-006 3.84571e-006 169.16 74.3142 -156.374 2.99717e-006 5.31099e-006 3 -8.02894 -4.95146 -0.697697 177.819 -4.847 -0.249708 180 7.0152e-015 178.813 177.696 5.30324 179.718 -7.93365e-007 3.1421e-006 0.0373015 -18.5362 67.729 19.3197 8.13649 25.2327 -3.48773 -171.273 -3.32142 -2.1063 4.54188e-006 -4.6773e-006 -1.03267 -1.29123 -9.35417 0.588996 3.05901e-007 -6.6868e-007 -0.0112673 17.25 69.331 -20.6068 -8.13656 25.2337 3.48637 
53.9192 85.6424 11.3354 -2.72018 -6.3284 -1.68017 0.104844 -0.847805 -0.089242 0.204061 2.30711 -0.189974 0.206526 3.95217 -0.19346 0.256951 8.39323 -0.8161 -3.152 7.71339 -0.8218 53.0541 4.52762 3.88421 121.212 24.3359 -64.6014 7.43564e-007 -1.12047e-007 -2.83057e-006 -152.531 65.3253 129.38 9.49884e-007 -3.55004e-007 -3 8.02889 -4.95145 0.697709 -48.5558 0.554831 -1.81345 -118.624 27.161 37.8176 -6.48933e-008 5.62099e-006 3.84571e-006 168.881 74.2576 -155.786 2.99717e-006 5.31099e-006 3 -8.02894 -4.95146 -0.697697 177.836 -4.84595 -0.273536 180 7.0152e-015 178.812 177.73 5.31683 179.715 -7.93365e-007 3.1421e-006 0.037306 -18.5312 67.7229 19.3132 8.13649 25.2327 -3.48773 -171.271 -3.31288 -2.10824 4.54188e-006 -4.6773e-006 -1.03206 -1.29135 -9.37648 0.589785 3.05901e-007 -6.6868e-007 -0.0112359 17.2517 69.3416 -20.6157 -8.13656 25.2337 3.48637 
